<svg width="24" height="24" viewBox="0 0 24 24" fill="none" xmlns="http://www.w3.org/2000/svg">
<path d="M11.0578 13.8077C11.8193 13.8077 12.4679 13.5398 13.0038 13.0037C13.5398 12.4679 13.8077 11.8193 13.8077 11.0578C13.8077 10.2962 13.5398 9.6475 13.0038 9.1115C12.4679 8.57567 11.8193 8.30775 11.0578 8.30775C10.2962 8.30775 9.6475 8.57567 9.1115 9.1115C8.57567 9.6475 8.30775 10.2962 8.30775 11.0578C8.30775 11.8193 8.57567 12.4679 9.1115 13.0037C9.6475 13.5398 10.2962 13.8077 11.0578 13.8077ZM16.0943 16.8077L13.3345 14.0288C13.0012 14.2839 12.6438 14.4775 12.2625 14.6095C11.8812 14.7417 11.4796 14.8077 11.0578 14.8077C10.0154 14.8077 9.12983 14.4433 8.401 13.7145C7.67217 12.9857 7.30775 12.1001 7.30775 11.0578C7.30775 10.0154 7.67217 9.12983 8.401 8.401C9.12983 7.67217 10.0154 7.30775 11.0578 7.30775C12.1001 7.30775 12.9857 7.67217 13.7145 8.401C14.4433 9.12983 14.8077 10.0154 14.8077 11.0578C14.8077 11.4796 14.7408 11.8812 14.6068 12.2625C14.4728 12.6438 14.2782 13.0012 14.023 13.3345L16.8077 16.1L16.0943 16.8077ZM5.6155 20C5.15517 20 4.77083 19.8458 4.4625 19.5375C4.15417 19.2292 4 18.8448 4 18.3845V15H5V18.3845C5 18.5385 5.06408 18.6796 5.19225 18.8077C5.32042 18.9359 5.4615 19 5.6155 19H9V20H5.6155ZM15 20V19H18.3845C18.5385 19 18.6796 18.9359 18.8077 18.8077C18.9359 18.6796 19 18.5385 19 18.3845V15H20V18.3845C20 18.8448 19.8458 19.2292 19.5375 19.5375C19.2292 19.8458 18.8448 20 18.3845 20H15ZM4 9V5.6155C4 5.15517 4.15417 4.77083 4.4625 4.4625C4.77083 4.15417 5.15517 4 5.6155 4H9V5H5.6155C5.4615 5 5.32042 5.06408 5.19225 5.19225C5.06408 5.32042 5 5.4615 5 5.6155V9H4ZM19 9V5.6155C19 5.4615 18.9359 5.32042 18.8077 5.19225C18.6796 5.06408 18.5385 5 18.3845 5H15V4H18.3845C18.8448 4 19.2292 4.15417 19.5375 4.4625C19.8458 4.77083 20 5.15517 20 5.6155V9H19Z" fill="white"/>
</svg>
