<svg width="24" height="24" viewBox="0 0 24 24" fill="none" xmlns="http://www.w3.org/2000/svg">
<path d="M11.0027 20C9.89192 20 8.85108 19.7927 7.88025 19.378C6.90942 18.9634 6.06083 18.3932 5.3345 17.6675C4.60817 16.9419 4.0375 16.0939 3.6225 15.1238C3.2075 14.1538 3 13.1134 3 12.0028C3 10.8919 3.20742 9.85111 3.62225 8.88027C4.03708 7.90944 4.60742 7.06085 5.33325 6.33452C6.05925 5.60819 6.90742 5.03752 7.87775 4.62252C8.84808 4.20752 9.88883 4.00002 11 4.00002C11.35 4.00002 11.6875 4.02085 12.0125 4.06252C12.3375 4.10419 12.6667 4.16669 13 4.25002V5.30002C12.6667 5.20002 12.3375 5.12502 12.0125 5.07502C11.6875 5.02502 11.35 5.00002 11 5.00002C9.059 5.00002 7.40708 5.68144 6.04425 7.04427C4.68142 8.40711 4 10.059 4 12C4 13.941 4.68142 15.5929 6.04425 16.9558C7.40708 18.3186 9.059 19 11 19C12.941 19 14.5929 18.3186 15.9557 16.9558C17.3186 15.5929 18 13.9399 18 11.9968C18 11.8156 17.9917 11.6308 17.975 11.4423C17.9583 11.2538 17.9269 11.0679 17.8807 10.8845H18.8923C18.9256 11.0424 18.9519 11.2219 18.9712 11.423C18.9904 11.6244 19 11.8167 19 12C19 13.1112 18.7927 14.1519 18.378 15.1223C17.9633 16.0926 17.3932 16.9408 16.6675 17.6668C15.9418 18.3926 15.0939 18.9629 14.1238 19.3778C13.1538 19.7926 12.1134 20 11.0027 20ZM14.1462 15.8538L10.5 12.2078V7.00002H11.5V11.7923L14.8538 15.1463L14.1462 15.8538ZM18 8.88452V5.88452H15V4.88452H18V1.88452H19V4.88452H22V5.88452H19V8.88452H18Z" fill="white"/>
</svg>
