<svg width="16" height="16" viewBox="0 0 16 16" fill="none" xmlns="http://www.w3.org/2000/svg">
<path d="M1.6155 16C1.17117 16 0.790833 15.8418 0.4745 15.5255C0.158167 15.2092 0 14.8288 0 14.3845V1.6155C0 1.17117 0.158167 0.790833 0.4745 0.4745C0.790833 0.158166 1.17117 0 1.6155 0H14.3845C14.8288 0 15.2092 0.158166 15.5255 0.4745C15.8418 0.790833 16 1.17117 16 1.6155V14.3845C16 14.8288 15.8418 15.2092 15.5255 15.5255C15.2092 15.8418 14.8288 16 14.3845 16H1.6155ZM1.6155 15H14.3845C14.564 15 14.7115 14.9423 14.827 14.827C14.9423 14.7115 15 14.564 15 14.3845V3H1V14.3845C1 14.564 1.05767 14.7115 1.173 14.827C1.2885 14.9423 1.436 15 1.6155 15ZM8 12C6.91533 12 5.93808 11.7221 5.06825 11.1663C4.19842 10.6106 3.54108 9.8885 3.09625 9C3.54108 8.1115 4.19842 7.38942 5.06825 6.83375C5.93808 6.27792 6.91533 6 8 6C9.08467 6 10.0619 6.27792 10.9318 6.83375C11.8016 7.38942 12.4589 8.1115 12.9038 9C12.4589 9.8885 11.8016 10.6106 10.9318 11.1663C10.0619 11.7221 9.08467 12 8 12ZM8 11.1155C8.79233 11.1155 9.53017 10.9299 10.2135 10.5588C10.8968 10.1876 11.4744 9.668 11.9462 9C11.4744 8.332 10.8968 7.81242 10.2135 7.44125C9.53017 7.07008 8.79233 6.8845 8 6.8845C7.20767 6.8845 6.46983 7.07008 5.7865 7.44125C5.10317 7.81242 4.52558 8.332 4.05375 9C4.52558 9.668 5.10317 10.1876 5.7865 10.5588C6.46983 10.9299 7.20767 11.1155 8 11.1155ZM8.0045 10.1155C8.31567 10.1155 8.57858 10.0066 8.79325 9.78875C9.00808 9.57092 9.1155 9.3065 9.1155 8.9955C9.1155 8.68433 9.00658 8.42142 8.78875 8.20675C8.57092 7.99192 8.3065 7.8845 7.9955 7.8845C7.68433 7.8845 7.42142 7.99342 7.20675 8.21125C6.99192 8.42908 6.8845 8.6935 6.8845 9.0045C6.8845 9.31567 6.99342 9.57858 7.21125 9.79325C7.42908 10.0081 7.6935 10.1155 8.0045 10.1155Z" fill="white"/>
</svg>
